<?xml version="1.0" encoding="utf-8"?>
<!-- Generator: Adobe Illustrator 25.3.1, SVG Export Plug-In . SVG Version: 6.00 Build 0)  -->
<svg version="1.1" id="Layer_1" xmlns="http://www.w3.org/2000/svg" xmlns:xlink="http://www.w3.org/1999/xlink" x="0px" y="0px"
	 viewBox="0 0 650 650" style="enable-background:new 0 0 650 650;" xml:space="preserve">
<style type="text/css">
	.st0{fill:#D52D3F;}
</style>
<path class="st0" d="M408.4,122.5L408.4,122.5l0.1,0.2h-0.1V122.5z"/>
<path class="st0" d="M493.1,103.6h56.7v56.7h-56.7L493.1,103.6z"/>
<path class="st0" d="M575.5,158.9h56.7v56.7h-56.7L575.5,158.9z"/>
<path class="st0" d="M531.7,466.5h56.7v56.7h-56.7V466.5z"/>
<path class="st0" d="M491.5,356.3h56.7V413h-56.7V356.3z"/>
<path class="st0" d="M437.1,430.9h56.7v56.7h-56.7V430.9z"/>
<path class="st0" d="M422.2,62.8h56.7v56.7h-56.7V62.8z"/>
<path class="st0" d="M496.6,226.5h56.7v56.7h-56.7V226.5z"/>
<path class="st0" d="M428.7,280.8h56.7v56.7h-56.7V280.8z"/>
<path class="st0" d="M425,406.3v-56.7l-56.8,0v56.7L425,406.3z"/>
<path class="st0" d="M493.4,622.4c-10.1-33.6-17.2-68-21.3-102.8h-63.8V463h-56.7v-56.7h-56.7v-56.7h56.7v-57.2h56.7V236H465v-56.7
	l-56.6-0.1v-56.5l-56.8,0V66l56.8-0.1V25.7c-27.1-8.8-55.3-13.9-83.7-15.1C185.6,3.4,66.5,92.7,70.4,215.8
	c0.5,16.3,3.3,40.2,3.3,55.8c-0.1,55.6-48.2,78.4-49.1,96.1c-1.5,29,32.6,20,44.6,61c15.3,52.1-6.6,111.6,64.4,107.9
	c28.4-1.1,74.4-12.1,94.2,6.2c12.6,11.7,22.7,62.8,26.7,85.4l0,0c1.1,6.3,6.6,10.8,12.9,10.8h213.4c4.1,0,8-1.9,10.5-5.2
	C493.8,630.7,494.6,626.4,493.4,622.4L493.4,622.4z M241.9,179.4h-56.7v-56.7h56.7V179.4z M298.6,144.4h56.7v56.7h-56.7L298.6,144.4
	z M256.2,277.6v-56.7h56.7v56.7H256.2z M327.6,533.1h-56.7v-56.7h56.7V533.1z"/>
<image style="overflow:visible;" width="566" height="444" xlink:href="663340C6.jpg"  transform="matrix(1 0 0 1 -653.3704 38.1517)">
</image>
</svg>
